:FULLY-SPECIFIED
:FORCE-ALL-JOINTS-BE-3DOF
:DEGREES
68
root 6.32777 16.772 -27.5808 10.7135 1.89638 -4.1045
lfemur -30.9914 6.74783 -14.4896
ltibia 41.1089 -0 0
lfoot -25.0626 4.35819 -0.00883562
ltoes 25.6896 -0 0
rfemur -13.997 2.29349 21.6581
rtibia 27.4201 -0 0
rfoot -26.9835 -19.5585 0.0394067
rtoes -2.9644 0 0
lowerback -4.94211 2.91411 2.73344
upperback -1.64521 3.75186 -0.282399
thorax 1.33591 1.87787 -1.6026
lowerneck -9.9949 -2.53333 3.32294
upperneck -4.62551 -3.66828 1.89881
head 0.180936 -1.85157 -0.0657807
lclavicle 1.40299e-14 2.07216e-14 2.52819e-30
lhumerus -42.0845 -10.8026 92.9641
lradius 43.9883 -0 0
lwrist 9.02008 0 0
lhand -11.6765 1.61992 -0.014574
lfingers 7.12502 -0 0
lthumb 14.3687 31.1025 -0.0140509
rclavicle 1.40299e-14 2.07216e-14 2.52819e-30
rhumerus -37.976 -0.0699186 -90.6432
rradius 41.6172 -0 0
rwrist 9.04081 0 0
rhand -25.4105 -20.4224 -0.00300134
rfingers 7.12502 -0 0
rthumb 1.11511 -50.3936 -0.00276133
69
root 6.34048 16.7663 -27.565 10.7228 2.05412 -4.2182
lfemur -31.4938 7.04218 -14.2625
ltibia 41.4854 -0 0
lfoot -24.6117 4.35645 -0.00894813
ltoes 25.2793 -0 0
rfemur -13.8956 2.01354 21.7555
rtibia 27.3458 -0 0
rfoot -27.0194 -19.4916 0.0380812
rtoes -3.52225 0 0
lowerback -4.85628 2.95569 2.81669
upperback -1.65262 3.80643 -0.2632
thorax 1.28523 1.90428 -1.6314
lowerneck -10.0233 -2.59216 3.32857
upperneck -4.68599 -3.746 1.89863
head 0.165797 -1.89126 -0.0688972
lclavicle 1.28649e-14 2.05955e-14 2.39686e-30
lhumerus -42.1254 -10.6659 92.8375
lradius 44.097 -0 0
lwrist 9.08035 0 0
lhand -11.6485 1.60656 -0.0141073
lfingers 7.12502 -0 0
lthumb 14.3957 31.0872 -0.0136078
rclavicle 1.28649e-14 2.05955e-14 2.39686e-30
rhumerus -37.9059 0.170083 -90.6179
rradius 41.7674 -0 0
rwrist 8.93353 0 0
rhand -25.3114 -20.4555 -0.00337728
rfingers 7.12502 -0 0
rthumb 1.21074 -50.4262 -0.00312259
70
root 6.35159 16.7608 -27.5506 10.7305 2.21087 -4.33325
lfemur -31.9956 7.33973 -14.0382
ltibia 41.8647 -0 0
lfoot -24.1645 4.35428 -0.00899114
ltoes 24.8733 -0 0
rfemur -13.7978 1.72599 21.8522
rtibia 27.278 -0 0
rfoot -27.059 -19.4148 0.0364936
rtoes -4.0684 0 0
lowerback -4.76593 2.9985 2.89438
upperback -1.66115 3.86323 -0.240083
thorax 1.23001 1.9317 -1.65326
lowerneck -10.0521 -2.65202 3.33306
upperneck -4.74463 -3.82505 1.89519
head 0.15128 -1.93161 -0.072919
lclavicle 1.16479e-14 2.0413e-14 2.24995e-30
lhumerus -42.167 -10.5266 92.7146
lradius 44.199 -0 0
lwrist 9.13542 0 0
lhand -11.619 1.60046 -0.0135434
lfingers 7.12502 -0 0
lthumb 14.4241 31.0791 -0.0130709
rclavicle 1.16479e-14 2.0413e-14 2.24995e-30
rhumerus -37.839 0.410081 -90.586
rradius 41.9196 -0 0
rwrist 8.8249 0 0
rhand -25.2089 -20.4912 -0.00372177
rfingers 7.12502 -0 0
rthumb 1.30974 -50.4612 -0.00345453
71
root 6.36094 16.7554 -27.5379 10.7364 2.36634 -4.44952
lfemur -32.4961 7.64005 -13.8169
ltibia 42.2461 -0 0
lfoot -23.7219 4.35167 -0.00895743
ltoes 24.4723 -0 0
rfemur -13.704 1.43098 21.9482
rtibia 27.2173 -0 0
rfoot -27.1027 -19.3279 0.0346514
rtoes -4.6015 0 0
lowerback -4.67101 3.04254 2.96617
upperback -1.67083 3.92228 -0.212918
thorax 1.17016 1.96012 -1.66786
lowerneck -10.0813 -2.71285 3.33634
upperneck -4.80125 -3.90537 1.88835
head 0.137435 -1.97258 -0.0778793
lclavicle 1.03787e-14 2.01717e-14 2.08899e-30
lhumerus -42.2093 -10.3847 92.596
lradius 44.2938 -0 0
lwrist 9.18498 0 0
lhand -11.5878 1.60193 -0.012885
lfingers 7.12502 -0 0
lthumb 14.4541 31.0784 -0.0124424
rclavicle 1.03787e-14 2.01717e-14 2.08899e-30
rhumerus -37.7754 0.649697 -90.5475
rradius 42.0735 -0 0
rwrist 8.71504 0 0
rhand -25.103 -20.5296 -0.00402517
rfingers 7.12502 -0 0
rthumb 1.4121 -50.4989 -0.00374795
72
root 6.36839 16.7503 -27.527 10.7405 2.52024 -4.56691
lfemur -32.9945 7.94268 -13.599
ltibia 42.6292 -0 0
lfoot -23.2847 4.34861 -0.00883969
ltoes 24.0771 -0 0
rfemur -13.6144 1.12865 22.0432
rtibia 27.1639 -0 0
rfoot -27.1505 -19.2306 0.0325651
rtoes -5.1202 0 0
lowerback -4.57148 3.0878 3.03169
upperback -1.68169 3.98357 -0.181574
thorax 1.10558 1.98957 -1.67487
lowerneck -10.1109 -2.77461 3.33837
upperneck -4.85568 -3.9869 1.87798
head 0.124311 -2.01414 -0.0838114
lclavicle 9.05699e-15 1.98697e-14 1.91575e-30
lhumerus -42.2523 -10.2404 92.4819
lradius 44.3811 -0 0
lwrist 9.22872 0 0
lhand -11.5551 1.6113 -0.0121353
lfingers 7.12502 -0 0
lthumb 14.4857 31.0855 -0.0117256
rclavicle 9.05699e-15 1.98697e-14 1.91575e-30
rhumerus -37.7154 0.88855 -90.502
rradius 42.229 -0 0
rwrist 8.60406 0 0
rhand -24.9935 -20.5706 -0.00427716
rfingers 7.12502 -0 0
rthumb 1.51781 -50.5393 -0.00399301
73
root 6.37379 16.7454 -27.5179 10.7427 2.67228 -4.68531
lfemur -33.4901 8.24715 -13.385
ltibia 43.0136 -0 0
lfoot -22.8538 4.34508 -0.00863065
ltoes 23.6886 -0 0
rfemur -13.5293 0.81915 22.1371
rtibia 27.1182 -0 0
rfoot -27.2025 -19.1226 0.0302484
rtoes -5.62316 0 0
lowerback -4.46729 3.13429 3.09059
upperback -1.69375 4.04713 -0.145922
thorax 1.03616 2.02006 -1.67398
lowerneck -10.1409 -2.83724 3.33909
upperneck -4.90773 -4.06958 1.86392
head 0.111959 -2.05626 -0.0907491
lclavicle 7.68235e-15 1.95048e-14 1.7323e-30
lhumerus -42.2959 -10.0937 92.3728
lradius 44.4603 -0 0
lwrist 9.26634 0 0
lhand -11.5207 1.62888 -0.0112989
lfingers 7.12502 -0 0
lthumb 14.5188 31.1006 -0.0109244
rclavicle 7.68235e-15 1.95048e-14 1.7323e-30
rhumerus -37.6592 1.12626 -90.4494
rradius 42.3861 -0 0
rwrist 8.49207 0 0
rhand -24.8806 -20.6144 -0.00446677
rfingers 7.12502 -0 0
rthumb 1.62686 -50.5824 -0.00417923
74
root 6.37698 16.7408 -27.511 10.7429 2.82216 -4.8046
lfemur -33.9821 8.553 -13.175
ltibia 43.3988 -0 0
lfoot -22.43 4.34106 -0.00832303
ltoes 23.3075 -0 0
rfemur -13.4491 0.502613 22.2299
rtibia 27.0806 -0 0
rfoot -27.2588 -19.0035 0.0277181
rtoes -6.10903 0 0
lowerback -4.35839 3.18201 3.14253
upperback -1.70703 4.11295 -0.105833
thorax 0.961804 2.0516 -1.66485
lowerneck -10.1711 -2.9007 3.33844
upperneck -4.95724 -4.15333 1.84605
head 0.100429 -2.0989 -0.0987258
lclavicle 6.2545e-15 1.90748e-14 1.54095e-30
lhumerus -42.34 -9.9447 92.2689
lradius 44.5311 -0 0
lwrist 9.29752 0 0
lhand -11.4847 1.65499 -0.0103812
lfingers 7.12502 -0 0
lthumb 14.5535 31.1242 -0.0100441
rclavicle 6.2545e-15 1.90748e-14 1.54095e-30
rhumerus -37.607 1.36246 -90.3894
rradius 42.5444 -0 0
rwrist 8.37918 0 0
rhand -24.7642 -20.661 -0.00458232
rfingers 7.12502 -0 0
rthumb 1.73925 -50.6283 -0.00429543
75
root 6.37782 16.7365 -27.5061 10.7412 2.96959 -4.92467
lfemur -34.4699 8.85973 -12.9695
ltibia 43.7843 -0 0
lfoot -22.0142 4.33656 -0.00790968
ltoes 22.9347 -0 0
rfemur -13.374 0.179188 22.3213
rtibia 27.0516 -0 0
rfoot -27.3194 -18.8732 0.0249944
rtoes -6.57646 0 0
lowerback -4.24475 3.23097 3.18715
upperback -1.72157 4.18105 -0.0611766
thorax 0.882411 2.08421 -1.64716
lowerneck -10.2017 -2.96494 3.33636
upperneck -5.00401 -4.23811 1.82421
head 0.0897721 -2.14202 -0.107775
lclavicle 4.77311e-15 1.85777e-14 1.34431e-30
lhumerus -42.3846 -9.79355 92.1706
lradius 44.5929 -0 0
lwrist 9.32197 0 0
lhand -11.447 1.68995 -0.00938908
lfingers 7.12502 -0 0
lthumb 14.5898 31.1566 -0.00909098
rclavicle 4.77311e-15 1.85777e-14 1.34431e-30
rhumerus -37.5589 1.59677 -90.322
rradius 42.7039 -0 0
rwrist 8.26549 0 0
rhand -24.6444 -20.7105 -0.00461142
rfingers 7.12502 -0 0
rthumb 1.85495 -50.6771 -0.00432976
76
root 6.37616 16.7324 -27.5036 10.7374 3.11429 -5.04541
lfemur -34.9527 9.16685 -12.7687
ltibia 44.1696 -0 0
lfoot -21.6072 4.33154 -0.00738353
ltoes 22.571 -0 0
rfemur -13.3043 -0.150979 22.4112
rtibia 27.0314 -0 0
rfoot -27.3847 -18.7312 0.0221013
rtoes -7.02412 0 0
lowerback -4.12632 3.28117 3.2241
upperback -1.73739 4.25145 -0.0118245
thorax 0.797882 2.11792 -1.62058
lowerneck -10.2325 -3.02991 3.3328
upperneck -5.04788 -4.32386 1.79826
head 0.0800377 -2.1856 -0.117932
lclavicle 3.23785e-15 1.80112e-14 1.14531e-30
lhumerus -42.4297 -9.64032 92.0782
lradius 44.6454 -0 0
lwrist 9.33937 0 0
lhand -11.4077 1.73409 -0.00833027
lfingers 7.12502 -0 0
lthumb 14.6277 31.198 -0.00807233
rclavicle 3.23785e-15 1.80112e-14 1.14531e-30
rhumerus -37.5152 1.82881 -90.2469
rradius 42.8644 -0 0
rwrist 8.15113 0 0
rhand -24.5212 -20.7629 -0.00454095
rfingers 7.12502 -0 0
rthumb 1.97397 -50.7287 -0.00426969
77
root 6.37184 16.7287 -27.5036 10.7314 3.25595 -5.1667
lfemur -35.4298 9.47386 -12.5729
ltibia 44.5543 -0 0
lfoot -21.2099 4.326 -0.00673772
ltoes 22.2172 -0 0
rfemur -13.2403 -0.487741 22.4996
rtibia 27.0205 -0 0
rfoot -27.4545 -18.5773 0.0190667
rtoes -7.45064 0 0
lowerback -4.00307 3.33262 3.25303
upperback -1.75451 4.32414 0.0423527
thorax 0.708119 2.15276 -1.58479
lowerneck -10.2635 -3.09557 3.32771
upperneck -5.08865 -4.41049 1.76806
head 0.0712766 -2.2296 -0.129229
lclavicle 1.6484e-15 1.73734e-14 9.47172e-31
lhumerus -42.475 -9.4851 91.9921
lradius 44.6881 -0 0
lwrist 9.34941 0 0
lhand -11.3666 1.78771 -0.00721401
lfingers 7.12502 -0 0
lthumb 14.6673 31.2487 -0.00699681
rclavicle 1.6484e-15 1.73734e-14 9.47172e-31
rhumerus -37.4761 2.05822 -90.164
rradius 43.0258 -0 0
rwrist 8.03621 0 0
rhand -24.3946 -20.8182 -0.00435707
rfingers 7.12502 -0 0
rthumb 2.09629 -50.7833 -0.00410197
78
root 6.36471 16.7254 -27.5061 10.7232 3.39428 -5.28843
lfemur -35.9005 9.78024 -12.3824
ltibia 44.9379 -0 0
lfoot -20.8231 4.31992 -0.0059656
ltoes 21.874 -0 0
rfemur -13.1823 -0.830952 22.5863
rtibia 27.0193 -0 0
rfoot -27.529 -18.4112 0.0159226
rtoes -7.85469 0 0
lowerback -3.87495 3.38536 3.27359
upperback -1.77296 4.39915 0.101484
thorax 0.613026 2.18874 -1.53947
lowerneck -10.2948 -3.16186 3.32102
upperneck -5.12616 -4.49796 1.73346
head 0.0635393 -2.27397 -0.141701
lclavicle 4.42221e-18 1.6662e-14 7.53457e-31
lhumerus -42.5206 -9.32797 91.9127
lradius 44.7205 -0 0
lwrist 9.35179 0 0
lhand -11.3237 1.85115 -0.00605078
lfingers 7.12502 -0 0
lthumb 14.7086 31.3091 -0.0058743
rclavicle 4.42221e-18 1.6662e-14 7.53457e-31
rhumerus -37.4417 2.28462 -90.073
rradius 43.1879 -0 0
rwrist 7.92083 0 0
rhand -24.2645 -20.8766 -0.00404516
rfingers 7.12502 -0 0
rthumb 2.2219 -50.8409 -0.00381261
